<?xml version="1.0" standalone="no"?><!DOCTYPE svg PUBLIC "-//W3C//DTD SVG 1.1//EN" "http://www.w3.org/Graphics/SVG/1.1/DTD/svg11.dtd"><svg t="1722844283999" class="icon" viewBox="0 0 1102 1024" version="1.1" xmlns="http://www.w3.org/2000/svg" p-id="13841" width="34.4375" height="32" xmlns:xlink="http://www.w3.org/1999/xlink"><path d="M1102.532923 27.569231c0-15.990154-11.579077-27.569231-30.247385-27.569231H22.291692C2.363077 0 0.551385 7.404308 0.551385 26.308923v900.489846c0 40.802462 10.24 51.436308 37.572923 51.436308 71.916308 0 983.118769-0.236308 1036.996923 0 22.055385 0 27.254154-17.014154 27.254154-38.990769 0.157538-255.054769 0.157538-856.221538 0.157538-911.596308zM411.648 75.854769c24.654769-0.157538 45.449846 22.055385 45.292308 48.443077-0.157538 26.151385-20.48 47.104-45.213539 46.946462-24.812308-0.236308-44.583385-21.188923-44.583384-47.497846 0-25.915077 19.928615-47.655385 44.425846-47.891693zM273.329231 76.091077c24.733538-0.236308 44.898462 20.952615 45.056 47.497846 0.078769 26.466462-19.692308 47.655385-44.425846 47.812923-25.127385 0.236308-44.740923-20.401231-45.13477-47.025231 0-26.781538 20.007385-48.364308 44.504616-48.364307z m-141.154462 0c24.733538-0.630154 45.528615 21.504 45.528616 48.049231-0.236308 26.072615-19.928615 46.867692-44.662154 47.104-24.733538 0.157538-44.662154-20.795077-44.898462-46.946462-0.236308-25.915077 19.692308-47.734154 43.953231-48.206769h0.078769z m912.777846 803.446154c0 27.569231-9.373538 37.888-33.949538 37.888H82.550154c-25.836308 0-24.182154-10.003692-24.182154-38.439385V215.985231c0-17.880615 2.756923-19.849846 17.329231-19.849846 158.483692-0.236308 317.597538 0 475.923692 0 159.901538 0 320.827077 0.157538 480.728615 0 9.924923 0 13.390769 2.205538 13.39077 14.651077-0.787692 220.002462-0.630154 448.590769-0.630154 668.750769h-0.157539z" fill="#555" p-id="13842"></path><path d="M819.2 739.249231c10.791385 0 13.075692 1.732923 13.075692 7.010461l-0.157538 46.001231c0 6.222769-2.126769 7.719385-7.483077 7.719385H552.408615c-7.640615 0-8.507077-3.387077-8.507077-9.452308 0-5.671385-0.236308-34.816 0-42.929231 0-6.616615 1.181538-8.349538 11.264-8.349538 34.422154-0.157538 230.715077-0.157538 264.034462 0zM438.744615 554.220308c-43.323077-35.603692-149.582769-118.468923-173.607384-138.161231-5.828923-4.726154-6.774154-8.664615-5.198769-13.075692 7.010462-11.736615 17.014154-27.017846 21.976615-33.476923 5.986462-8.113231 9.924923-6.774154 18.825846 0.630153 11.027692 8.664615 178.491077 141.312 197.710769 158.011077 18.510769 16.541538 15.753846 36.864-5.671384 57.107693-26.466462 22.528-172.819692 141.942154-192.196923 158.011077-8.428308 6.222769-11.579077 9.767385-20.48-0.236308-4.253538-6.065231-16.699077-21.504-20.637539-27.017846-6.774154-9.452308-2.126769-14.099692 6.459077-22.370462 24.182154-20.952615 126.976-100.430769 172.819692-139.421538z" fill="#555" p-id="13843"></path></svg>