<?xml version="1.0" standalone="no"?><!DOCTYPE svg PUBLIC "-//W3C//DTD SVG 1.1//EN" "http://www.w3.org/Graphics/SVG/1.1/DTD/svg11.dtd"><svg t="1725529455025" class="icon" viewBox="0 0 1024 1024" version="1.1" xmlns="http://www.w3.org/2000/svg" p-id="8603" width="48" height="48" xmlns:xlink="http://www.w3.org/1999/xlink"><path d="M498.141867 86.016c140.834133 0 267.400533 85.742933 322.491733 216.405333 53.111467 130.594133 24.576 279.620267-75.502933 379.630934l-228.625067 228.693333c-6.144 4.096-12.288 8.123733-18.363733 8.123733-6.144 0-12.288-2.048-18.432-8.192L251.221333 682.052267C151.1424 582.0416 122.538667 433.015467 175.581867 302.421333c55.159467-130.6624 181.725867-216.405333 322.56-216.405333z m0 51.063467c-120.4224 0-228.693333 73.454933-275.592534 183.637333-46.967467 110.250667-20.411733 238.933333 63.2832 324.608l212.309334 210.261333 212.309333-212.309333a295.458133 295.458133 0 0 0 63.2832-324.539733 299.008 299.008 0 0 0-275.592533-181.6576z m-75.502934 179.541333v279.688533h-51.063466V316.757333h51.063466z m177.5616 0c49.015467 0 87.790933 38.912 87.790934 87.8592S649.216 492.202667 600.200533 492.202667h-28.603733v102.126933h-50.9952V341.1968c0-14.336 12.288-24.576 24.507733-24.576h55.0912z m0 53.111467h-28.603733v73.5232h28.672c20.343467 0 36.6592-16.384 36.6592-36.727467a36.590933 36.590933 0 0 0-36.727467-36.795733z" p-id="8604"></path><path d="M498.141867 79.189333c143.1552 0 272.452267 86.971733 328.840533 220.637867a356.078933 356.078933 0 0 1-77.0048 387.072l-229.649067 229.512533c-10.4448 6.894933-15.1552 9.284267-22.186666 9.284267a31.744 31.744 0 0 1-23.210667-10.171733l-228.625067-228.625067C144.7936 585.386667 114.961067 433.629867 169.301333 299.758933 225.6896 166.161067 354.986667 79.189333 498.141867 79.189333z m0 13.653334c-137.6256 0-262.007467 83.626667-316.2112 212.104533A342.4256 342.4256 0 0 0 256 677.2736l228.625067 228.625067c4.369067 4.369067 8.6016 6.144 13.5168 6.144 3.208533 0 6.621867-1.706667 13.5168-6.144l228.693333-228.693334a342.357333 342.357333 0 0 0 74.001067-372.189866C760.149333 176.469333 635.767467 92.842667 498.141867 92.842667z m0 37.410133a305.834667 305.834667 0 0 1 281.873066 185.821867 302.2848 302.2848 0 0 1-64.785066 332.049066l-212.309334 212.309334h-9.557333L280.9856 650.103467C194.696533 561.7664 168.618667 430.011733 216.2688 318.122667c48.3328-113.4592 159.402667-187.869867 281.873067-187.869867z m0 13.653333c-116.9408 0-223.095467 71.133867-269.312 179.541334-45.4656 106.837333-20.548267 232.6528 61.8496 317.0304l207.530666 205.4144 207.394134-207.394134a288.768 288.768 0 0 0 67.447466-302.8992l-5.597866-14.199466a292.181333 292.181333 0 0 0-269.312-177.493334z m-75.502934 165.888l6.826667 6.826667v279.688533l-6.826667 6.826667h-51.063466l-6.826667-6.826667V316.757333l6.826667-6.826666h51.063466z m177.5616 0c52.770133 0 94.6176 41.915733 94.6176 94.685867S652.970667 499.029333 600.200533 499.029333h-21.777066v95.300267l-6.826667 6.826667h-50.9952l-6.826667-6.826667V341.1968c0-17.476267 14.677333-31.402667 31.3344-31.402667h55.0912z m-184.456533 13.653334h-37.410133v266.0352h37.410133V323.447467z m184.456533 0h-55.0912a18.0224 18.0224 0 0 0-17.749333 17.749333v246.237867h37.410133V492.202667l6.826667-6.826667h28.672c45.124267 0 80.896-35.703467 80.896-80.896 0-45.2608-35.771733-80.964267-80.964267-80.964267z m0 39.458133c24.1664 0 43.554133 19.387733 43.554134 43.6224a43.4176 43.4176 0 0 1-43.554134 43.554133h-28.603733l-6.826667-6.826666V369.732267l6.826667-6.826667h28.672z m-21.777066 73.454933h21.845333a29.764267 29.764267 0 0 0 29.832533-29.832533 29.764267 29.764267 0 0 0-29.9008-29.969067h-21.777066v59.8016z" p-id="8605"></path></svg>