<svg t="1734591274358" class="icon" viewBox="0 0 1024 1024" version="1.1" xmlns="http://www.w3.org/2000/svg" p-id="29270" width="32" height="32"><path d="M328 472c79.528 0 144-64.472 144-144s-64.472-144-144-144-144 64.472-144 144 64.472 144 144 144z m220.44-104a222.9 222.9 0 0 1-41.332 94.54l183.808 183.808A143.324 143.324 0 0 1 768 624c79.528 0 144 64.472 144 144s-64.472 144-144 144-144-64.472-144-144a143.464 143.464 0 0 1 13.812-61.62l-189.44-189.44A222.62 222.62 0 0 1 368 548.44v89.188c60.068 17.332 104 72.724 104 138.372 0 79.528-64.472 144-144 144s-144-64.472-144-144c0-65.648 43.932-121.04 104-138.372V548.44C183.372 529.58 104 438.06 104 328c0-123.712 100.288-224 224-224 110.06 0 201.58 79.372 220.44 184h89.188C654.96 227.932 710.352 184 776 184c79.528 0 144 64.472 144 144s-64.472 144-144 144c-65.648 0-121.04-43.932-138.372-104H548.44zM392 776c0-35.348-28.652-64-64-64s-64 28.652-64 64 28.652 64 64 64 64-28.652 64-64z m384-384c35.348 0 64-28.652 64-64s-28.652-64-64-64-64 28.652-64 64 28.652 64 64 64z" p-id="29271"></path></svg>