<?xml version="1.0" standalone="no"?><!DOCTYPE svg PUBLIC "-//W3C//DTD SVG 1.1//EN" "http://www.w3.org/Graphics/SVG/1.1/DTD/svg11.dtd"><svg t="1725933810317" class="icon" viewBox="0 0 1024 1024" version="1.1" xmlns="http://www.w3.org/2000/svg" p-id="25093" width="64" height="64" xmlns:xlink="http://www.w3.org/1999/xlink"><path d="M877.5 916.4c0 22.4-18.2 40.6-40.6 40.6H187.4c-22.4 0-40.6-18.2-40.6-40.6V104.5c0-22.4 18.2-40.6 40.6-40.6h487.2l203 203v649.5z" fill="#EEEEEE" p-id="25094"></path><path d="M694.8 388.6H329.4c-11.2 0-20.3 9.1-20.3 20.3 0 11.2 9.1 20.3 20.3 20.3h365.4c11.2 0 20.3-9.1 20.3-20.3 0-11.2-9.1-20.3-20.3-20.3z m0 162.4H329.4c-11.2 0-20.3 9.1-20.3 20.3 0 11.2 9.1 20.3 20.3 20.3h365.4c11.2 0 20.3-9.1 20.3-20.3 0-11.2-9.1-20.3-20.3-20.3z m0 162.4H329.4c-11.2 0-20.3 9.1-20.3 20.3 0 11.2 9.1 20.3 20.3 20.3h365.4c11.2 0 20.3-9.1 20.3-20.3 0-11.2-9.1-20.3-20.3-20.3zM674.5 63.9v162.4c0 22.4 18.2 40.6 40.6 40.6h162.4l-203-203z" fill="#DDDDDD" p-id="25095"></path></svg>