<svg width="16.000000" height="16.000000" viewBox="0 0 16 16" xmlns="http://www.w3.org/2000/svg" xmlns:xlink="http://www.w3.org/1999/xlink">
	<desc>
			Created with Pixso.
	</desc>
	<defs>
		<clipPath id="clip8_325">
			<rect id="资源-分组" width="16.000000" height="16.000000" fill-opacity="0"/>
		</clipPath>
	</defs>
	<g clip-path="url(#clip8_325)">
		<path id="path" d="M1.67 3.28L3.07 3.28C3.47 3.28 3.79 2.96 3.79 2.56C3.79 2.16 3.47 1.84 3.07 1.84L1.67 1.84C0.81 1.84 0.11 2.54 0.11 3.4L0.11 12.57C0.11 13.44 0.81 14.14 1.67 14.14L3.07 14.14C3.47 14.14 3.79 13.82 3.79 13.42C3.79 13.02 3.47 12.7 3.07 12.7L1.67 12.7C1.6 12.7 1.55 12.64 1.55 12.57L1.55 8.72L3.07 8.72C3.47 8.72 3.79 8.4 3.79 8C3.79 7.6 3.47 7.28 3.07 7.28L1.55 7.28L1.55 3.4C1.55 3.34 1.6 3.28 1.67 3.28ZM15.23 6.08L5.39 6.08C5.02 6.08 4.71 6.38 4.71 6.75L4.71 9.26C4.71 9.63 5.02 9.93 5.39 9.93L15.21 9.93C15.58 9.93 15.88 9.63 15.88 9.26L15.88 6.75C15.88 6.38 15.6 6.08 15.23 6.08ZM6.6 8.49C6.6 8.64 6.48 8.75 6.32 8.75L6.3 8.75L6.28 8.75C6.14 8.75 6.03 8.64 6.03 8.49L6.03 7.5C6.03 7.35 6.14 7.24 6.28 7.24L6.32 7.24C6.48 7.24 6.6 7.35 6.6 7.5L6.6 8.49ZM14.6 8.12C14.6 8.48 14.33 8.75 13.98 8.75L8.56 8.75C8.2 8.75 7.93 8.48 7.93 8.12L7.93 7.87C7.93 7.52 8.2 7.24 8.56 7.24L13.98 7.24C14.33 7.24 14.6 7.52 14.6 7.87L14.6 8.12ZM15.23 0.52L5.39 0.52C5.02 0.52 4.71 0.83 4.71 1.2L4.71 3.71C4.71 4.08 5.02 4.38 5.39 4.38L15.21 4.38C15.58 4.38 15.88 4.08 15.88 3.71L15.88 1.18C15.88 0.81 15.6 0.52 15.23 0.52ZM6.6 2.94C6.6 3.08 6.48 3.2 6.32 3.2L6.3 3.2L6.28 3.2C6.14 3.2 6.03 3.08 6.03 2.94L6.03 1.95C6.03 1.8 6.14 1.69 6.28 1.69L6.32 1.69C6.48 1.69 6.6 1.8 6.6 1.95L6.6 2.94ZM14.6 2.57C14.6 2.92 14.33 3.2 13.98 3.2L8.56 3.2C8.2 3.2 7.93 2.92 7.93 2.57L7.93 2.32C7.93 1.96 8.2 1.69 8.56 1.69L13.98 1.69C14.33 1.69 14.6 1.96 14.6 2.32L14.6 2.57ZM15.23 11.64L5.39 11.64C5.02 11.64 4.71 11.95 4.71 12.32L4.71 14.83C4.71 15.2 5.02 15.5 5.39 15.5L15.21 15.5C15.58 15.5 15.88 15.2 15.88 14.83L15.88 12.3C15.88 11.93 15.6 11.64 15.23 11.64ZM6.6 14.06C6.6 14.2 6.48 14.32 6.32 14.32L6.3 14.32L6.28 14.32C6.14 14.32 6.03 14.2 6.03 14.06L6.03 13.07C6.03 12.92 6.14 12.81 6.28 12.81L6.32 12.81C6.48 12.81 6.6 12.92 6.6 13.07L6.6 14.06ZM14.6 13.69C14.6 14.04 14.33 14.32 13.98 14.32L8.56 14.32C8.2 14.32 7.93 14.04 7.93 13.69L7.93 13.44C7.93 13.08 8.2 12.81 8.56 12.81L13.98 12.81C14.33 12.81 14.6 13.08 14.6 13.44L14.6 13.69Z" fill-opacity="1.000000" fill-rule="nonzero"/>
	</g>
</svg>
