<svg width="59.218994" height="28.418274" viewBox="0 0 59.219 28.4183" fill="none" xmlns="http://www.w3.org/2000/svg" xmlns:xlink="http://www.w3.org/1999/xlink">
	<desc>
			Created with Pixso.
	</desc>
	<defs/>
	<path id="path" d="M20.57 4.56C20.8 4.49 21.03 4.45 21.26 4.42C21.59 4.37 22 4.33 22.46 4.28C22.5 4.19 22.55 4.11 22.61 4.03C22.68 3.96 22.75 3.9 22.83 3.85C22.92 3.8 23 3.76 23.1 3.74C23.2 3.72 23.29 3.72 23.39 3.73C23.61 3.82 23.84 3.9 24.08 3.96C24.28 4 24.47 4.08 24.64 4.19C25.24 4.7 25.24 5.02 24.64 5.21L24.45 5.21C24.36 5.21 24.26 5.2 24.18 5.16L24.31 5.16C24.32 5.15 24.31 5.14 24.3 5.13C24.29 5.12 24.28 5.11 24.27 5.11C24.15 5.11 24.05 5.08 23.95 5.02C23.82 4.94 23.68 4.91 23.53 4.93C23.37 4.92 23.22 4.93 23.07 4.98C22.92 5.02 22.76 5.04 22.61 5.02C22.51 5.02 22.47 5.02 22.42 5.07C22.38 5.12 22.37 5.12 22.33 5.12L19.74 5.53C18.84 8.65 17.56 11.61 15.91 14.4C15.82 14.54 15.68 14.54 15.45 14.45C15.26 14.36 15.17 14.22 15.26 14.12L15.21 14.12C15.89 12.88 16.51 11.6 17.06 10.29C17.66 8.91 18.22 7.38 18.83 5.72C18.5 5.81 18.23 5.86 18 5.9C17.75 5.95 17.5 6.01 17.26 6.09L17.3 6.09C17.24 6.13 17.18 6.16 17.12 6.19C17.06 6.22 16.99 6.24 16.92 6.26C16.85 6.27 16.78 6.28 16.71 6.28C16.64 6.28 16.57 6.28 16.5 6.26C16.44 6.25 16.37 6.23 16.3 6.2C16.24 6.18 16.18 6.14 16.12 6.11C16.06 6.07 16.01 6.02 15.96 5.97C15.91 5.92 15.86 5.87 15.82 5.81C15.45 5.49 15.36 5.3 15.5 5.26C15.78 5.21 16.05 5.19 16.33 5.21C16.48 5.26 16.64 5.27 16.79 5.26L17.26 5.26L17.95 5.07L19.1 4.8C19.1 4.73 19.12 4.67 19.15 4.61C19.15 4.52 19.2 4.43 19.2 4.33L19.24 4.15C19.45 3.52 19.58 2.87 19.66 2.21L19.7 2.16L19.98 0.96C20.4 1.33 20.74 1.76 21 2.25C21.01 2.41 20.96 2.55 20.86 2.67L20.86 2.49C20.73 2.65 20.64 2.84 20.58 3.04C20.49 3.32 20.35 3.87 20.12 4.66L20.17 4.66C20.23 4.66 20.29 4.64 20.35 4.61C20.42 4.57 20.49 4.55 20.57 4.56ZM22.69 7.56C22.79 7.49 22.86 7.4 22.92 7.3C22.97 7.19 23.01 7.08 23.02 6.96C22.97 6.5 23.06 6.36 23.34 6.5C23.51 6.61 23.65 6.74 23.77 6.9C23.89 7.06 23.98 7.23 24.03 7.42C24.31 7.61 24.26 7.79 23.89 7.98C23.57 8.35 23.11 8.81 22.55 9.41C21.94 10.02 21.31 10.61 20.66 11.17C20.66 11.29 20.68 11.4 20.71 11.5C20.75 11.61 20.79 11.71 20.86 11.81C20.92 11.9 20.99 11.98 21.07 12.06C21.16 12.13 21.25 12.19 21.35 12.24L21.35 12.19C21.78 12.41 22.23 12.58 22.69 12.7C23.16 12.81 23.64 12.87 24.13 12.88C25.14 12.85 26.13 12.66 27.08 12.33C27.41 12.24 27.5 12.1 27.41 11.91C27.31 11.01 27.06 10.15 26.67 9.32L27.08 9C27.41 9.32 27.69 9.67 27.91 10.06C28.14 10.43 28.42 10.94 28.74 11.5C28.75 11.6 28.78 11.69 28.84 11.77C28.89 11.86 28.97 11.92 29.07 11.96C29.16 12 29.16 12.05 29.07 12.19C29.11 12.46 28.93 12.65 28.51 12.79C27.08 13.24 25.62 13.47 24.12 13.48C23.23 13.54 22.35 13.43 21.49 13.16C21.16 13.04 20.87 12.85 20.62 12.6C20.37 12.35 20.18 12.06 20.06 11.73L18.16 13.02L17.98 12.7L19.92 10.76C19.87 10.35 19.88 9.95 19.97 9.55C20.05 9.03 20.15 8.5 20.29 7.99C20.32 7.88 20.34 7.77 20.34 7.66C20.33 7.57 20.34 7.47 20.38 7.39C20.4 7.22 20.45 7.07 20.52 6.92C20.57 6.74 20.71 6.42 20.85 6C20.98 6.13 21.1 6.27 21.22 6.42C21.35 6.6 21.49 6.74 21.59 6.88C21.64 7 21.65 7.13 21.63 7.27C21.6 7.4 21.54 7.52 21.45 7.62L21.45 7.57C21.31 7.75 21.2 7.95 21.12 8.17C20.99 8.61 20.88 9.06 20.8 9.51C20.72 9.64 20.68 9.78 20.66 9.93C21.21 9.32 21.91 8.53 22.69 7.56ZM22.28 2.11C23.39 2.44 23.99 2.76 23.99 3.13C24.04 3.17 24.07 3.22 24.09 3.28C24.1 3.34 24.1 3.39 24.08 3.45C23.93 3.63 23.75 3.74 23.52 3.78L22.46 2.9C22.4 2.9 22.34 2.88 22.28 2.85C22.22 2.82 22.16 2.8 22.09 2.8C21.59 2.3 21.35 2.02 21.4 1.97C21.31 1.88 21.63 1.97 22.28 2.11Z" fill="#D41619" fill-opacity="1.000000" fill-rule="nonzero"/>
	<path id="path" d="M32.58 8.62C32.44 8.89 32.34 9.17 32.26 9.46C32.21 9.64 32.17 9.83 32.12 9.96C32.09 10.22 32.14 10.47 32.26 10.7C31.89 11.07 31.56 11.21 31.34 11.16C31.21 10.95 31.12 10.72 31.07 10.47C31.02 10.23 31.02 9.98 31.06 9.73C31.05 9.6 31.08 9.48 31.13 9.36C31.17 9.24 31.24 9.13 31.34 9.04L31.61 8.76C31.72 8.66 31.81 8.56 31.89 8.44L32.03 8.25L32.03 8.3C32.44 7.75 32.72 7.52 32.86 7.52C32.91 7.61 32.81 7.93 32.58 8.62ZM34.24 4.7C33.82 4.81 33.4 4.84 32.97 4.78C32.53 4.73 32.13 4.59 31.75 4.38L31.89 3.97C32.59 4.01 33.28 3.96 33.97 3.83C34.06 3.78 34.11 3.78 34.06 3.78L34.15 3.78L33.69 2.63L34.1 2.3L34.75 2.95C34.94 3.13 35.12 3.36 35.26 3.5L36.14 3.36L38.22 3.04L38.68 1.56C38.65 1.02 38.55 0.5 38.36 0C39.56 0.59 40.07 1.2 39.83 1.84L39.42 2.77C39.53 2.77 39.64 2.75 39.74 2.72C39.83 2.72 39.97 2.67 40.07 2.67C40.27 2.62 40.45 2.53 40.62 2.4C40.76 2.07 41.04 2.03 41.45 2.21C41.97 2.29 42.45 2.48 42.88 2.77C43.3 3.04 43.16 3.27 42.47 3.51L42.14 3.51C41.89 3.45 41.62 3.42 41.36 3.41C41.1 3.41 40.84 3.42 40.58 3.46L39.84 3.6L39.88 3.6L39.05 3.78C38.32 4.84 37.51 5.83 36.6 6.74C36.57 6.78 36.53 6.82 36.48 6.84C36.43 6.87 36.38 6.88 36.33 6.88C36.27 6.88 36.22 6.87 36.17 6.84C36.12 6.82 36.08 6.78 36.05 6.74C35.86 6.56 35.86 6.42 36 6.28C36.35 5.94 36.66 5.57 36.93 5.17C37.2 4.8 37.43 4.43 37.66 4.06C37.06 4.25 36.44 4.41 35.82 4.52C35.94 4.75 35.98 5 35.96 5.26C35.91 5.4 35.77 5.49 35.54 5.58C35.17 5.68 34.94 5.63 34.85 5.54C34.76 5.39 34.69 5.24 34.66 5.08L34.66 4.89L34.61 4.75L34.24 4.75L34.24 4.7ZM40.76 10.8C40.43 10.43 40.07 10.07 39.69 9.74C38.91 8.82 39.05 8.63 40.11 9.19C41.16 9.85 42.13 10.62 43.02 11.49C43.44 11.91 43.34 12.23 42.74 12.42C42.61 12.42 42.56 12.46 42.56 12.56C41.57 12.96 40.54 13.16 39.47 13.16C38.4 13.13 37.37 12.95 36.37 12.6C35.97 12.41 35.6 12.17 35.26 11.89C34.92 11.61 34.61 11.3 34.35 10.94C34.08 10.59 33.86 10.21 33.69 9.8C33.52 9.39 33.39 8.97 33.32 8.54L33.88 8.4C33.97 8.78 34.11 9.14 34.29 9.49C34.47 9.84 34.68 10.16 34.93 10.46C35.19 10.76 35.47 11.03 35.78 11.27C36.09 11.5 36.43 11.7 36.79 11.86C37.61 12.21 38.48 12.4 39.37 12.42C40.13 12.43 40.86 12.28 41.54 11.95L41.68 11.91C41.31 11.53 41.08 11.16 40.76 10.79L40.76 10.8ZM36.88 7.47L36.88 7.42C37.18 7.59 37.47 7.77 37.75 7.98C37.94 8.12 37.85 8.39 37.57 8.67C36.69 8.67 36 7.98 35.4 6.59L36.88 7.47ZM40.94 6.59C41.4 6.7 41.84 6.84 42.28 7.01C42.74 7.19 43.25 7.42 43.8 7.7C44.08 7.98 44.04 8.3 43.76 8.62C43.66 8.66 43.56 8.69 43.45 8.7C43.35 8.7 43.24 8.7 43.14 8.67C43.03 8.65 42.94 8.61 42.85 8.55C42.76 8.5 42.68 8.43 42.61 8.35L42.61 8.4C42.13 7.95 41.59 7.61 40.99 7.38C40.48 7.01 40.2 6.78 40.16 6.59C40.02 6.45 40.29 6.45 40.94 6.59Z" fill="#D41619" fill-opacity="1.000000" fill-rule="nonzero"/>
	<path id="path" d="M12.6 18.05L7.93 18.05C7.84 18.05 7.75 18.06 7.66 18.08C7.56 18.1 7.47 18.12 7.39 18.16C7.3 18.2 7.22 18.24 7.14 18.29C7.06 18.34 6.99 18.4 6.92 18.47C6.86 18.54 6.8 18.61 6.75 18.69C6.69 18.76 6.65 18.85 6.61 18.93C6.58 19.02 6.55 19.11 6.53 19.2C6.51 19.29 6.5 19.39 6.5 19.48L6.5 22.53C6.5 22.62 6.51 22.72 6.53 22.81C6.55 22.9 6.58 22.99 6.61 23.08C6.65 23.17 6.69 23.25 6.75 23.33C6.8 23.4 6.86 23.48 6.92 23.54C6.99 23.61 7.06 23.67 7.14 23.72C7.22 23.77 7.3 23.82 7.39 23.85C7.47 23.89 7.56 23.92 7.66 23.94C7.75 23.95 7.84 23.96 7.93 23.96L12.6 23.96C12.7 23.96 12.79 23.95 12.88 23.94C12.97 23.92 13.06 23.89 13.15 23.85C13.24 23.82 13.32 23.77 13.4 23.72C13.47 23.67 13.55 23.61 13.61 23.54C13.68 23.48 13.74 23.4 13.79 23.33C13.84 23.25 13.89 23.17 13.92 23.08C13.96 22.99 13.99 22.9 14.01 22.81C14.02 22.72 14.03 22.62 14.03 22.53L14.03 19.48C14.03 19.39 14.02 19.29 14.01 19.2C13.99 19.11 13.96 19.02 13.92 18.93C13.89 18.85 13.84 18.76 13.79 18.69C13.74 18.61 13.68 18.54 13.61 18.47C13.55 18.4 13.47 18.34 13.4 18.29C13.32 18.24 13.24 18.2 13.15 18.16C13.06 18.12 12.97 18.1 12.88 18.08C12.79 18.06 12.7 18.05 12.6 18.05ZM12.28 21.97C12.28 22.04 12.27 22.11 12.26 22.18C12.25 22.25 12.23 22.31 12.2 22.38C12.18 22.44 12.14 22.5 12.1 22.56C12.07 22.62 12.02 22.68 11.97 22.72C11.92 22.77 11.87 22.82 11.81 22.86C11.75 22.9 11.69 22.93 11.63 22.95C11.56 22.98 11.49 23 11.42 23.01C11.36 23.03 11.29 23.03 11.22 23.03L9.6 23.03C9.53 23.03 9.46 23.03 9.39 23.01C9.32 23 9.25 22.98 9.19 22.95C9.12 22.93 9.06 22.9 9 22.86C8.95 22.82 8.89 22.77 8.84 22.72C8.79 22.68 8.75 22.62 8.71 22.56C8.67 22.5 8.64 22.44 8.61 22.38C8.59 22.31 8.57 22.25 8.55 22.18C8.54 22.11 8.54 22.04 8.54 21.97L8.54 20.03C8.54 19.96 8.54 19.89 8.55 19.82C8.57 19.75 8.59 19.68 8.61 19.62C8.64 19.55 8.67 19.49 8.71 19.43C8.75 19.38 8.79 19.32 8.84 19.27C8.89 19.22 8.95 19.18 9 19.14C9.06 19.1 9.12 19.07 9.19 19.04C9.25 19.02 9.32 19 9.39 18.98C9.46 18.97 9.53 18.96 9.6 18.97L11.22 18.97C11.29 18.96 11.36 18.97 11.42 18.98C11.49 19 11.56 19.02 11.63 19.04C11.69 19.07 11.75 19.1 11.81 19.14C11.87 19.18 11.92 19.22 11.97 19.27C12.02 19.32 12.07 19.38 12.1 19.43C12.14 19.49 12.18 19.55 12.2 19.62C12.23 19.68 12.25 19.75 12.26 19.82C12.27 19.89 12.28 19.96 12.28 20.03L12.28 21.97ZM50.62 18.05L45.95 18.05C45.86 18.05 45.77 18.06 45.68 18.08C45.58 18.1 45.49 18.12 45.41 18.16C45.32 18.2 45.24 18.24 45.16 18.29C45.08 18.34 45.01 18.4 44.94 18.47C44.88 18.54 44.82 18.61 44.77 18.69C44.71 18.76 44.67 18.85 44.63 18.93C44.6 19.02 44.57 19.11 44.55 19.2C44.53 19.29 44.52 19.39 44.52 19.48L44.52 22.53C44.52 22.62 44.53 22.72 44.55 22.81C44.57 22.9 44.6 22.99 44.63 23.08C44.67 23.17 44.71 23.25 44.77 23.33C44.82 23.4 44.88 23.48 44.94 23.54C45.01 23.61 45.08 23.67 45.16 23.72C45.24 23.77 45.32 23.82 45.41 23.85C45.49 23.89 45.58 23.92 45.68 23.94C45.77 23.95 45.86 23.96 45.95 23.96L50.62 23.96C50.72 23.96 50.81 23.95 50.9 23.94C50.99 23.92 51.08 23.89 51.17 23.85C51.26 23.82 51.34 23.77 51.42 23.72C51.49 23.67 51.57 23.61 51.63 23.54C51.7 23.48 51.76 23.4 51.81 23.33C51.86 23.25 51.91 23.17 51.94 23.08C51.98 22.99 52.01 22.9 52.03 22.81C52.04 22.72 52.05 22.62 52.05 22.53L52.05 19.48C52.06 19.39 52.05 19.29 52.03 19.2C52.01 19.11 51.99 19.02 51.95 18.93C51.92 18.84 51.87 18.76 51.82 18.68C51.77 18.6 51.71 18.53 51.64 18.46C51.57 18.39 51.5 18.33 51.42 18.28C51.34 18.23 51.26 18.19 51.17 18.15C51.09 18.12 51 18.09 50.9 18.07C50.81 18.05 50.72 18.05 50.62 18.05ZM50.34 21.97C50.35 22.04 50.34 22.11 50.33 22.18C50.31 22.25 50.3 22.31 50.27 22.38C50.24 22.44 50.21 22.5 50.17 22.56C50.13 22.62 50.09 22.68 50.04 22.72C49.99 22.77 49.94 22.82 49.88 22.86C49.82 22.9 49.76 22.93 49.69 22.95C49.63 22.98 49.56 23 49.49 23.01C49.42 23.03 49.35 23.03 49.28 23.03L47.67 23.03C47.6 23.03 47.53 23.03 47.46 23.01C47.39 23 47.32 22.98 47.26 22.95C47.19 22.93 47.13 22.9 47.07 22.86C47.01 22.82 46.96 22.77 46.91 22.72C46.86 22.68 46.82 22.62 46.78 22.56C46.74 22.5 46.71 22.44 46.68 22.38C46.65 22.31 46.63 22.25 46.62 22.18C46.61 22.11 46.6 22.04 46.6 21.97L46.6 20.03C46.6 19.96 46.61 19.89 46.62 19.82C46.63 19.75 46.65 19.68 46.68 19.62C46.71 19.55 46.74 19.49 46.78 19.43C46.82 19.38 46.86 19.32 46.91 19.27C46.96 19.22 47.01 19.18 47.07 19.14C47.13 19.1 47.19 19.07 47.26 19.04C47.32 19.02 47.39 19 47.46 18.98C47.53 18.97 47.6 18.96 47.67 18.97L49.28 18.97C49.35 18.96 49.42 18.97 49.49 18.98C49.56 19 49.63 19.02 49.69 19.04C49.76 19.07 49.82 19.1 49.88 19.14C49.94 19.18 49.99 19.22 50.04 19.27C50.09 19.32 50.13 19.38 50.17 19.43C50.21 19.49 50.24 19.55 50.27 19.62C50.3 19.68 50.31 19.75 50.33 19.82C50.34 19.89 50.35 19.96 50.34 20.03L50.34 21.97ZM20.18 18.05L15.51 18.05C15.42 18.05 15.33 18.06 15.23 18.08C15.14 18.1 15.05 18.12 14.96 18.16C14.88 18.2 14.8 18.24 14.72 18.29C14.64 18.34 14.57 18.4 14.5 18.47C14.43 18.54 14.37 18.61 14.32 18.69C14.27 18.76 14.23 18.85 14.19 18.93C14.15 19.02 14.13 19.11 14.11 19.2C14.09 19.29 14.08 19.39 14.08 19.48L14.08 22.53C14.08 22.62 14.09 22.72 14.11 22.81C14.13 22.9 14.15 22.99 14.19 23.08C14.23 23.17 14.27 23.25 14.32 23.33C14.37 23.4 14.43 23.48 14.5 23.54C14.57 23.61 14.64 23.67 14.72 23.72C14.8 23.77 14.88 23.82 14.96 23.85C15.05 23.89 15.14 23.92 15.23 23.94C15.33 23.95 15.42 23.96 15.51 23.96L20.18 23.96C20.27 23.96 20.37 23.95 20.46 23.94C20.55 23.92 20.64 23.89 20.73 23.85C20.81 23.82 20.9 23.77 20.97 23.72C21.05 23.67 21.12 23.61 21.19 23.54C21.26 23.48 21.32 23.4 21.37 23.33C21.42 23.25 21.46 23.17 21.5 23.08C21.54 22.99 21.56 22.9 21.58 22.81C21.6 22.72 21.61 22.62 21.61 22.53L21.61 19.48C21.61 19.39 21.6 19.29 21.58 19.2C21.56 19.11 21.54 19.02 21.5 18.93C21.46 18.85 21.42 18.76 21.37 18.69C21.32 18.61 21.26 18.54 21.19 18.47C21.12 18.4 21.05 18.34 20.97 18.29C20.9 18.24 20.81 18.2 20.73 18.16C20.64 18.12 20.55 18.1 20.46 18.08C20.37 18.06 20.27 18.05 20.18 18.05ZM19.86 21.97C19.86 22.04 19.85 22.11 19.84 22.18C19.83 22.25 19.81 22.31 19.78 22.38C19.75 22.44 19.72 22.5 19.68 22.56C19.64 22.62 19.6 22.68 19.55 22.72C19.5 22.77 19.45 22.82 19.39 22.86C19.33 22.9 19.27 22.93 19.2 22.95C19.14 22.98 19.07 23 19 23.01C18.93 23.03 18.86 23.03 18.79 23.03L17.17 23.03C17.1 23.03 17.03 23.03 16.96 23.01C16.89 23 16.82 22.98 16.76 22.95C16.69 22.93 16.63 22.9 16.57 22.86C16.51 22.82 16.46 22.77 16.41 22.72C16.36 22.68 16.32 22.62 16.28 22.56C16.24 22.5 16.21 22.44 16.18 22.38C16.15 22.31 16.13 22.25 16.12 22.18C16.11 22.11 16.1 22.04 16.1 21.97L16.1 20.03C16.1 19.96 16.11 19.89 16.12 19.82C16.13 19.75 16.15 19.68 16.18 19.62C16.21 19.55 16.24 19.49 16.28 19.43C16.32 19.38 16.36 19.32 16.41 19.27C16.46 19.22 16.51 19.18 16.57 19.14C16.63 19.1 16.69 19.07 16.76 19.04C16.82 19.02 16.89 19 16.96 18.98C17.03 18.97 17.1 18.96 17.17 18.97L18.78 18.97C18.85 18.96 18.92 18.97 18.99 18.98C19.06 19 19.13 19.02 19.19 19.04C19.26 19.07 19.32 19.1 19.38 19.14C19.44 19.18 19.49 19.22 19.54 19.27C19.59 19.32 19.63 19.38 19.67 19.43C19.71 19.49 19.74 19.55 19.77 19.62C19.8 19.68 19.82 19.75 19.83 19.82C19.84 19.89 19.85 19.96 19.85 20.03L19.86 21.97ZM36.53 25.48C36.31 25.17 36.03 24.92 35.7 24.74C35.34 24.52 34.97 24.32 34.59 24.14C34.5 24.09 34.36 24.05 34.27 24L35.33 24C35.43 24 35.52 23.99 35.61 23.97C35.7 23.95 35.79 23.93 35.88 23.89C35.97 23.85 36.05 23.81 36.13 23.76C36.2 23.71 36.28 23.65 36.34 23.58C36.41 23.51 36.47 23.44 36.52 23.36C36.57 23.28 36.62 23.2 36.65 23.12C36.69 23.03 36.72 22.94 36.74 22.85C36.75 22.76 36.76 22.66 36.76 22.57L36.76 19.53C36.76 19.44 36.75 19.34 36.74 19.25C36.72 19.16 36.69 19.07 36.65 18.98C36.62 18.9 36.57 18.81 36.52 18.74C36.47 18.66 36.41 18.59 36.34 18.52C36.28 18.45 36.2 18.39 36.13 18.34C36.05 18.29 35.97 18.24 35.88 18.21C35.79 18.17 35.7 18.14 35.61 18.13C35.52 18.11 35.43 18.1 35.33 18.1L30.66 18.1C30.57 18.1 30.48 18.11 30.39 18.13C30.29 18.14 30.2 18.17 30.12 18.21C30.03 18.24 29.95 18.29 29.87 18.34C29.79 18.39 29.72 18.45 29.65 18.52C29.59 18.59 29.53 18.66 29.48 18.74C29.42 18.81 29.38 18.9 29.34 18.98C29.31 19.07 29.28 19.16 29.26 19.25C29.24 19.34 29.23 19.44 29.23 19.53L29.23 22.67C29.24 22.89 29.29 23.11 29.37 23.32C29.44 23.54 29.55 23.73 29.69 23.91C29.82 24.09 29.98 24.25 30.16 24.39C30.35 24.52 30.54 24.62 30.76 24.7C31.36 24.98 31.91 25.21 32.52 25.48C32.94 25.67 33.35 25.85 33.77 26.08C33.94 26.15 34.09 26.24 34.23 26.36C34.28 26.42 34.31 26.48 34.33 26.56C34.34 26.63 34.34 26.7 34.32 26.77C34.28 26.88 34.22 26.97 34.14 27.05L34.09 27.1L29.24 27.1L29.24 28.39L34.51 28.39C35.02 28.46 35.51 28.38 35.98 28.16C36.1 28.1 36.21 28.03 36.31 27.95C36.41 27.87 36.5 27.77 36.57 27.67C36.65 27.56 36.71 27.45 36.76 27.33C36.81 27.21 36.84 27.09 36.86 26.96C36.91 26.7 36.91 26.44 36.85 26.19C36.8 25.93 36.69 25.7 36.53 25.49L36.53 25.48ZM31.13 20.03C31.13 19.96 31.13 19.89 31.14 19.82C31.16 19.75 31.18 19.68 31.2 19.62C31.23 19.55 31.26 19.49 31.3 19.43C31.34 19.38 31.38 19.32 31.43 19.27C31.48 19.22 31.54 19.18 31.6 19.14C31.65 19.1 31.72 19.07 31.78 19.04C31.85 19.02 31.91 19 31.98 18.98C32.05 18.97 32.12 18.96 32.19 18.97L33.81 18.97C33.88 18.96 33.95 18.97 34.02 18.98C34.08 19 34.15 19.02 34.22 19.04C34.28 19.07 34.34 19.1 34.4 19.14C34.46 19.18 34.51 19.22 34.56 19.27C34.61 19.32 34.66 19.38 34.7 19.43C34.73 19.49 34.77 19.55 34.79 19.62C34.82 19.68 34.84 19.75 34.85 19.82C34.86 19.89 34.87 19.96 34.87 20.03L34.87 21.92C34.87 21.99 34.86 22.06 34.85 22.13C34.84 22.2 34.82 22.27 34.79 22.33C34.77 22.4 34.73 22.46 34.7 22.52C34.66 22.57 34.61 22.63 34.56 22.68C34.51 22.73 34.46 22.77 34.4 22.81C34.34 22.85 34.28 22.88 34.22 22.91C34.15 22.93 34.08 22.95 34.02 22.97C33.95 22.98 33.88 22.98 33.81 22.98L32.19 22.98C32.12 22.98 32.05 22.98 31.98 22.97C31.91 22.95 31.85 22.93 31.78 22.91C31.72 22.88 31.65 22.85 31.6 22.81C31.54 22.77 31.48 22.73 31.43 22.68C31.38 22.63 31.34 22.57 31.3 22.52C31.26 22.46 31.23 22.4 31.2 22.33C31.18 22.27 31.16 22.2 31.14 22.13C31.13 22.06 31.13 21.99 31.13 21.92L31.13 20.03ZM43.92 22.43C43.92 22.29 43.88 21.46 42.58 21C42.31 20.91 42.03 20.77 41.75 20.67C41.61 20.63 41.43 20.54 41.29 20.49C41.2 20.45 41.11 20.45 41.06 20.4C40.68 20.26 40.31 20.11 39.95 19.94C39.79 19.89 39.65 19.82 39.53 19.7C39.49 19.66 39.47 19.61 39.46 19.55C39.45 19.49 39.46 19.43 39.49 19.38C39.53 19.29 39.6 19.22 39.67 19.15C39.68 19.15 39.7 19.15 39.7 19.14C39.71 19.13 39.72 19.12 39.72 19.1L43.37 19.1L43.97 18.13L39.3 18.13C38.85 18.08 38.42 18.14 38.01 18.32C37.82 18.4 37.66 18.52 37.52 18.67C37.39 18.83 37.29 19 37.22 19.2L37.22 19.43C37.23 19.54 37.24 19.64 37.27 19.75C37.3 19.94 37.38 20.11 37.5 20.26C37.62 20.46 37.78 20.64 37.97 20.78C38.17 20.93 38.38 21.03 38.61 21.09C38.89 21.18 39.17 21.32 39.44 21.41C39.58 21.46 39.77 21.55 39.9 21.6C40 21.64 40.09 21.64 40.14 21.69C40.51 21.82 40.88 21.98 41.24 22.15C41.4 22.19 41.54 22.27 41.66 22.38C41.7 22.43 41.73 22.48 41.74 22.54C41.74 22.6 41.73 22.65 41.71 22.71C41.66 22.79 41.6 22.87 41.52 22.94C41.51 22.94 41.5 22.94 41.49 22.95C41.48 22.96 41.48 22.97 41.48 22.98L37.23 22.98L37.23 23.95L41.89 23.95C42.34 24.01 42.77 23.95 43.19 23.77C43.37 23.68 43.54 23.57 43.67 23.41C43.81 23.26 43.91 23.09 43.97 22.89C43.94 22.74 43.92 22.59 43.92 22.44L43.92 22.43Z" fill="#D41619" fill-opacity="1.000000" fill-rule="nonzero"/>
	<path id="path" d="M6.96 22.81L3.04 22.81C3 22.8 2.95 22.79 2.91 22.77C2.86 22.75 2.82 22.73 2.79 22.69C2.75 22.66 2.73 22.62 2.71 22.58C2.69 22.53 2.68 22.49 2.67 22.44L2.67 16.89L0 16.89L0 22.58C0.01 22.67 0.02 22.76 0.05 22.85C0.08 22.94 0.11 23.03 0.16 23.11C0.2 23.19 0.25 23.27 0.31 23.34C0.36 23.41 0.43 23.48 0.5 23.54C0.57 23.61 0.64 23.66 0.72 23.71C0.8 23.75 0.89 23.79 0.97 23.83C1.06 23.86 1.15 23.88 1.24 23.9C1.33 23.91 1.43 23.92 1.52 23.92L8.48 23.92L8.48 22.81L6.96 22.81ZM27.29 18.05L22.21 18.05L22.21 24.01L24.38 24.01L24.38 19.02L26.69 19.02L26.69 23.86L28.77 23.86L28.77 19.48C28.77 19.38 28.76 19.29 28.74 19.19C28.72 19.1 28.69 19.01 28.65 18.92C28.61 18.83 28.57 18.75 28.51 18.67C28.46 18.6 28.4 18.52 28.33 18.46C28.26 18.39 28.19 18.33 28.11 18.28C28.03 18.23 27.94 18.18 27.85 18.15C27.76 18.11 27.67 18.09 27.58 18.07C27.49 18.05 27.39 18.05 27.29 18.05ZM57.74 18.05L52.65 18.05L52.65 24.01L54.83 24.01L54.83 19.02L57.13 19.02L57.13 23.86L59.21 23.86L59.21 19.48C59.21 19.38 59.19 19.29 59.17 19.2C59.15 19.1 59.12 19.02 59.08 18.93C59.04 18.84 58.99 18.76 58.94 18.69C58.88 18.61 58.82 18.54 58.75 18.47C58.69 18.41 58.61 18.35 58.53 18.3C58.46 18.24 58.37 18.2 58.29 18.16C58.2 18.13 58.11 18.1 58.02 18.08C57.92 18.06 57.83 18.05 57.74 18.05Z" fill="#D41619" fill-opacity="1.000000" fill-rule="nonzero"/>
</svg>
