<svg width="15.000000" height="16.000000" viewBox="0 0 15 16" fill="none" xmlns="http://www.w3.org/2000/svg" xmlns:xlink="http://www.w3.org/1999/xlink">
	<defs>
		<clipPath id="clip53_27">
			<rect id="icon_皇冠" width="12.000000" height="12.000000" transform="translate(1.526245 2.000000)" fill="white" fill-opacity="0"/>
		</clipPath>
	</defs>
	<path id="多边形 1" d="M7.5 0L0 4L0 12L7.5 16L15 12L15 4L7.5 0Z" fill="#A1B1CA" fill-opacity="1.000000" fill-rule="evenodd"/>
	<g clip-path="url(#clip53_27)">
		<path id="path" d="M11.09 12.65L4 12.65C3.98 12.65 3.97 12.64 3.97 12.62L3.97 11.82C3.97 11.81 3.98 11.8 4 11.8L11.09 11.8C11.1 11.8 11.11 11.81 11.11 11.82L11.11 12.62C11.11 12.64 11.1 12.65 11.09 12.65Z" fill="#FFD68D" fill-opacity="1.000000" fill-rule="nonzero"/>
		<path id="path" d="M12.19 5.7C11.87 5.7 11.61 5.96 11.61 6.29C11.61 6.38 11.63 6.46 11.66 6.53L9.6 7.47L7.87 4.44C8.04 4.34 8.16 4.15 8.16 3.93C8.16 3.61 7.9 3.34 7.59 3.34C7.27 3.34 7.01 3.61 7.01 3.93C7.01 4.14 7.12 4.33 7.28 4.43L5.43 7.47L3.36 6.53C3.4 6.46 3.41 6.38 3.41 6.29C3.41 5.96 3.16 5.7 2.84 5.7C2.52 5.7 2.26 5.96 2.26 6.29C2.26 6.62 2.52 6.88 2.84 6.88C2.89 6.88 2.93 6.87 2.97 6.86L3.99 11.15L11.04 11.15L12.05 6.86C12.1 6.87 12.14 6.88 12.19 6.88C12.51 6.88 12.76 6.62 12.76 6.29C12.76 5.96 12.51 5.7 12.19 5.7Z" fill="#FFD68D" fill-opacity="1.000000" fill-rule="nonzero"/>
	</g>
</svg>
