<svg width="14.000000" height="14.362793" viewBox="0 0 14 14.3628" fill="none" xmlns="http://www.w3.org/2000/svg" xmlns:xlink="http://www.w3.org/1999/xlink">
	<desc>
			Created with Pixso.
	</desc>
	<defs/>
	<path id="path" d="M13.5 13.36C13.77 13.36 14 13.58 14 13.86C14 14.13 13.77 14.36 13.5 14.36L0.5 14.36C0.22 14.36 0 14.13 0 13.86C0 13.58 0.22 13.36 0.5 13.36L13.5 13.36ZM7.4 2.47L11.15 6.22L4.78 12.09C4.69 12.18 4.59 12.24 4.47 12.29C4.35 12.33 4.23 12.36 4.1 12.36L1 12.36C0.72 12.36 0.5 12.13 0.5 11.86L0.5 9.3C0.49 9.16 0.52 9.02 0.58 8.89C0.63 8.77 0.71 8.66 0.82 8.56L7.4 2.47ZM11.18 0.29L13.51 2.62C13.9 3.01 13.9 3.65 13.51 4.04C13.5 4.05 13.49 4.05 13.48 4.06L11.88 5.54L8.14 1.79L9.79 0.26C10.18 -0.1 10.8 -0.09 11.18 0.29Z" fill="#1A73E8" fill-opacity="1.000000" fill-rule="nonzero"/>
</svg>
